<?xml version="1.0" encoding="UTF-8" standalone="no"?>
<svg width="800" height="800" xmlns="http://www.w3.org/2000/svg">
  <rect width="100%" height="100%" fill="#fdeb17" />
  <path style="opacity:0.8;fill:#0097bd"
        d="M 350 75 A 275 275 0 0 0 75 350 L 75 800 L 175 800 L 175 561.97461 A 275 275 0 0 0 350 625 A 275 275 0 0 0 625 350 A 275 275 0 0 0 350 75 z "
  />
  <path style="opacity:0.8;fill:#5e01bc"
        d="M 625 0 L 625 238.02539 A 275 275 0 0 0 450 175 A 275 275 0 0 0 175 450 A 275 275 0 0 0 450 725 A 275 275 0 0 0 725 450 L 725 0 L 625 0 z "
  />
</svg>
