<svg width="18" height="18" viewBox="0 0 800 800" xmlns="http://www.w3.org/2000/svg">
  <rect width="800" height="800" x="0" y="0" rx="266" ry="266" fill="rgb(253,235,23)" />
  <path fill="rgb(87,197,224)" d="M 350 75 A 275 275 0 0 0 75 350 L 75 800 L 175 800 L 175 561.97461 A 275 275 0 0 0 350 625 A 275 275 0 0 0 625 350 A 275 275 0 0 0 350 75 z "></path>
  <path fill="rgb(94,1,188)" opacity="0.8" d="M 625 0 L 625 238.02539 A 275 275 0 0 0 450 175 A 275 275 0 0 0 175 450 A 275 275 0 0 0 450 725 A 275 275 0 0 0 725 450 L 725 0 L 625 0 z "></path>
</svg>
